<svg width="40" height="40" viewBox="0 0 40 40" fill="none" xmlns="http://www.w3.org/2000/svg">
<rect width="40" height="40" rx="20" fill="#0097AA"/>
<g clip-path="url(#clip0_5803_41831)">
<path d="M29.2981 23.0981C29.436 23.0983 29.5707 23.1392 29.6855 23.2156C29.8002 23.2921 29.8898 23.4008 29.943 23.528C29.9962 23.6552 30.0106 23.7953 29.9845 23.9307C29.9583 24.0661 29.8928 24.1908 29.7961 24.2891L24.3691 29.7921C24.3045 29.8575 24.2276 29.9095 24.1429 29.9452C24.0582 29.9809 23.9673 29.9996 23.8753 30.0001C23.6897 30.0012 23.5112 29.9286 23.3791 29.7981C23.247 29.6676 23.1722 29.49 23.171 29.3043C23.1699 29.1187 23.2426 28.9401 23.3731 28.8081L27.6251 24.4981H10.7021C10.5164 24.4981 10.3384 24.4243 10.2071 24.293C10.0758 24.1618 10.0021 23.9837 10.0021 23.7981C10.0021 23.6124 10.0758 23.4344 10.2071 23.3031C10.3384 23.1718 10.5164 23.0981 10.7021 23.0981H29.2991H29.2981ZM16.6181 10.2021C16.6836 10.2666 16.7357 10.3434 16.7715 10.4281C16.8072 10.5128 16.826 10.6037 16.8266 10.6956C16.8273 10.7876 16.8098 10.8787 16.7752 10.9639C16.7407 11.0491 16.6896 11.1266 16.6251 11.1921L12.3731 15.5021H29.2961C29.4817 15.5021 29.6598 15.5758 29.7911 15.7071C29.9223 15.8384 29.9961 16.0164 29.9961 16.2021C29.9961 16.3877 29.9223 16.5658 29.7911 16.697C29.6598 16.8283 29.4817 16.9021 29.2961 16.9021H10.6991C10.5612 16.9019 10.4264 16.861 10.3117 16.7845C10.197 16.708 10.1074 16.5993 10.0542 16.4721C10.001 16.3449 9.98655 16.2048 10.0127 16.0694C10.0388 15.934 10.1044 15.8094 10.2011 15.7111L15.6291 10.2081C15.6937 10.1427 15.7705 10.0906 15.8553 10.0549C15.94 10.0192 16.0309 10.0006 16.1228 10C16.2148 9.99946 16.3059 10.017 16.3911 10.0517C16.4762 10.0864 16.5537 10.1375 16.6191 10.2021H16.6181Z" fill="white"/>
</g>
<defs>
<clipPath id="clip0_5803_41831">
<rect width="20" height="20" fill="white" transform="translate(10 10)"/>
</clipPath>
</defs>
</svg>
