<svg width="150" height="150" viewBox="0 0 150 150" fill="none" xmlns="http://www.w3.org/2000/svg">
<path d="M0 75C0 94.8912 7.90176 113.968 21.967 128.033C36.0322 142.098 55.1088 150 75 150C94.8912 150 113.968 142.098 128.033 128.033C142.098 113.968 150 94.8912 150 75C150 55.1088 142.098 36.0322 128.033 21.967C113.968 7.90176 94.8912 0 75 0C55.1088 0 36.0322 7.90176 21.967 21.967C7.90176 36.0322 0 55.1088 0 75Z" fill="#F1F2F6"/>
<path d="M10.6562 27.1084L87.6428 4.50257L117.129 104.922L40.1427 127.528L10.6562 27.1084Z" fill="white" stroke="#1D1E2C" stroke-width="2.325" stroke-linecap="round" stroke-linejoin="round"/>
<path d="M25.8755 11.1797H106.114V115.837H25.8755V11.1797Z" fill="white" stroke="#1D1E2C" stroke-width="2.325" stroke-linecap="round" stroke-linejoin="round"/>
<path d="M36.3433 21.6475H95.6495V32.1137H36.3433V21.6475Z" fill="#E5E9F2" stroke="#1D1E2C" stroke-width="2.325" stroke-linecap="round" stroke-linejoin="round"/>
<path d="M57.2729 49.5537H71.2286" stroke="#1D1E2C" stroke-width="2.325" stroke-linecap="round" stroke-linejoin="round"/>
<path d="M57.2729 56.5332H88.6717" stroke="#1D1E2C" stroke-width="2.325" stroke-linecap="round" stroke-linejoin="round"/>
<path d="M57.2729 63.5098H79.9755" stroke="#1D1E2C" stroke-width="2.325" stroke-linecap="round" stroke-linejoin="round"/>
<path d="M57.2729 84.4404H74.7161" stroke="#1D1E2C" stroke-width="2.325" stroke-linecap="round" stroke-linejoin="round"/>
<path d="M57.2729 91.417H92.1592" stroke="#1D1E2C" stroke-width="2.325" stroke-linecap="round" stroke-linejoin="round"/>
<path d="M57.2729 98.3965H85.1823" stroke="#1D1E2C" stroke-width="2.325" stroke-linecap="round" stroke-linejoin="round"/>
<path d="M39.654 62.353V57.727H38.25V56.575H39.654V55.099H38.25V53.947H39.654V49.501H41.526L43.236 53.947H45.36V49.501H46.782V53.947H48.186V55.099H46.782V56.575H48.186V57.727H46.782V62.353H44.892L43.182 57.727H41.058V62.353H39.654ZM41.022 53.947H41.778L41.022 51.715H40.95L41.022 53.947ZM41.058 56.575H42.75L42.21 55.099H41.022L41.058 56.575ZM44.19 56.575H45.396L45.36 55.099H43.65L44.19 56.575ZM45.36 59.815H45.432L45.378 57.727H44.622L45.36 59.815Z" fill="#1D1E2C"/>
<path d="M39.654 98.352V93.726H38.25V92.574H39.654V91.098H38.25V89.946H39.654V85.5H41.526L43.236 89.946H45.36V85.5H46.782V89.946H48.186V91.098H46.782V92.574H48.186V93.726H46.782V98.352H44.892L43.182 93.726H41.058V98.352H39.654ZM41.022 89.946H41.778L41.022 87.714H40.95L41.022 89.946ZM41.058 92.574H42.75L42.21 91.098H41.022L41.058 92.574ZM44.19 92.574H45.396L45.36 91.098H43.65L44.19 92.574ZM45.36 95.814H45.432L45.378 93.726H44.622L45.36 95.814Z" fill="#1D1E2C"/>
<path d="M142.442 131.664C143.059 132.265 143.551 132.983 143.888 133.775C144.225 134.567 144.402 135.419 144.408 136.28C144.413 137.141 144.248 137.995 143.921 138.792C143.594 139.589 143.112 140.312 142.503 140.921C141.894 141.53 141.17 142.013 140.374 142.34C139.577 142.667 138.723 142.832 137.862 142.827C137.001 142.821 136.149 142.645 135.357 142.308C134.564 141.971 133.847 141.479 133.246 140.863L115.996 123.613L125.194 114.414L142.442 131.664Z" fill="#E5E9F2"/>
<path d="M142.442 131.664C143.059 132.265 143.551 132.983 143.888 133.775C144.225 134.567 144.402 135.419 144.408 136.28C144.413 137.141 144.248 137.995 143.921 138.792C143.594 139.589 143.112 140.312 142.503 140.921C141.894 141.53 141.17 142.013 140.374 142.34C139.577 142.667 138.723 142.832 137.862 142.827C137.001 142.821 136.149 142.645 135.357 142.308C134.564 141.971 133.847 141.479 133.246 140.863L115.996 123.613L125.194 114.414L142.442 131.664Z" stroke="#1D1E2C" stroke-width="2.325" stroke-linecap="round" stroke-linejoin="round"/>
<path d="M106.794 109.818L111.393 105.218L122.894 116.716L118.295 121.316L106.794 109.818Z" fill="white" stroke="#1D1E2C" stroke-width="2.325" stroke-linecap="round" stroke-linejoin="round"/>
<path d="M112.549 69.5733C116.643 73.6668 119.43 78.8824 120.56 84.5603C121.689 90.2383 121.11 96.1237 118.894 101.472C116.679 106.821 112.927 111.392 108.114 114.609C103.3 117.825 97.6409 119.542 91.8517 119.542C86.0625 119.542 80.4033 117.825 75.5897 114.609C70.7762 111.392 67.0245 106.821 64.8091 101.472C62.5937 96.1237 62.0141 90.2383 63.1436 84.5603C64.273 78.8824 67.0609 73.6668 71.1545 69.5733C76.6443 64.0851 84.0891 61.002 91.8517 61.002C99.6143 61.002 107.059 64.0851 112.549 69.5733Z" fill="white" stroke="#1D1E2C" stroke-width="2.325" stroke-linecap="round" stroke-linejoin="round"/>
<path d="M106.796 75.3242C109.752 78.2805 111.766 82.047 112.581 86.1475C113.397 90.248 112.978 94.4983 111.378 98.3609C109.778 102.223 107.069 105.525 103.593 107.848C100.116 110.17 96.0296 111.41 91.8487 111.41C87.6679 111.41 83.5809 110.17 80.1047 107.848C76.6285 105.525 73.9191 102.223 72.3191 98.3609C70.7191 94.4983 70.3005 90.248 71.1161 86.1475C71.9317 82.047 73.945 78.2805 76.9012 75.3242C78.864 73.361 81.1943 71.8037 83.759 70.7412C86.3237 69.6787 89.0726 69.1318 91.8487 69.1318C94.6248 69.1318 97.3737 69.6787 99.9384 70.7412C102.503 71.8037 104.833 73.361 106.796 75.3242Z" fill="#E5E9F2"/>
<path d="M106.796 75.3242C109.752 78.2805 111.766 82.047 112.581 86.1475C113.397 90.248 112.978 94.4983 111.378 98.3609C109.778 102.223 107.069 105.525 103.593 107.848C100.116 110.17 96.0296 111.41 91.8487 111.41C87.6679 111.41 83.5809 110.17 80.1047 107.848C76.6285 105.525 73.9191 102.223 72.3191 98.3609C70.7191 94.4983 70.3005 90.248 71.1161 86.1475C71.9317 82.047 73.945 78.2805 76.9012 75.3242C78.864 73.361 81.1943 71.8037 83.759 70.7412C86.3237 69.6787 89.0726 69.1318 91.8487 69.1318C94.6248 69.1318 97.3737 69.6787 99.9384 70.7412C102.503 71.8037 104.833 73.361 106.796 75.3242Z" stroke="#1D1E2C" stroke-width="2.325" stroke-linecap="round" stroke-linejoin="round"/>
<path d="M48.3252 140.589C48.3252 141.632 51.3626 142.632 56.7693 143.369C62.176 144.107 69.509 144.521 77.1552 144.521C84.8014 144.521 92.1344 144.107 97.5411 143.369C102.948 142.632 105.985 141.632 105.985 140.589C105.985 139.546 102.948 138.546 97.5411 137.809C92.1344 137.071 84.8014 136.657 77.1552 136.657C69.509 136.657 62.176 137.071 56.7693 137.809C51.3626 138.546 48.3252 139.546 48.3252 140.589Z" fill="#E5E9F2"/>
</svg>
