<svg width="25" height="16" viewBox="0 0 25 16" fill="none" xmlns="http://www.w3.org/2000/svg">
<path d="M24.3536 8.35355C24.5488 8.15829 24.5488 7.84171 24.3536 7.64645L21.1716 4.46447C20.9763 4.2692 20.6597 4.2692 20.4645 4.46447C20.2692 4.65973 20.2692 4.97631 20.4645 5.17157L23.2929 8L20.4645 10.8284C20.2692 11.0237 20.2692 11.3403 20.4645 11.5355C20.6597 11.7308 20.9763 11.7308 21.1716 11.5355L24.3536 8.35355ZM0 8.5H2V7.5H0V8.5ZM6 8.5H10V7.5H6V8.5ZM14 8.5H18V7.5H14V8.5ZM22 8.5H24V7.5H22V8.5ZM24.7071 8.70711C25.0976 8.31658 25.0976 7.68342 24.7071 7.29289L18.3431 0.928932C17.9526 0.538408 17.3195 0.538408 16.9289 0.928932C16.5384 1.31946 16.5384 1.95262 16.9289 2.34315L22.5858 8L16.9289 13.6569C16.5384 14.0474 16.5384 14.6805 16.9289 15.0711C17.3195 15.4616 17.9526 15.4616 18.3431 15.0711L24.7071 8.70711ZM0 9H2V7H0V9ZM6 9H10V7H6V9ZM14 9H18V7H14V9ZM22 9H24V7H22V9Z" fill="white"/>
</svg>
