<svg width="48" height="48" viewBox="0 0 48 48" fill="none" xmlns="http://www.w3.org/2000/svg">
<rect y="0.360352" width="47.1724" height="47.1724" rx="23.5862" fill="#F1A002"/>
<path d="M28.5859 32.6963H18.5859C14.1759 32.6963 12.8359 31.3563 12.8359 26.9463V26.4463C12.8359 26.0363 13.1759 25.6963 13.5859 25.6963C14.5459 25.6963 15.3359 24.9063 15.3359 23.9463C15.3359 22.9863 14.5459 22.1963 13.5859 22.1963C13.1759 22.1963 12.8359 21.8563 12.8359 21.4463V20.9463C12.8359 16.5363 14.1759 15.1963 18.5859 15.1963H28.5859C32.9959 15.1963 34.3359 16.5363 34.3359 20.9463V21.9463C34.3359 22.3563 33.9959 22.6963 33.5859 22.6963C32.6259 22.6963 31.8359 23.4863 31.8359 24.4463C31.8359 25.4063 32.6259 26.1963 33.5859 26.1963C33.9959 26.1963 34.3359 26.5363 34.3359 26.9463C34.3359 31.3563 32.9959 32.6963 28.5859 32.6963ZM14.3359 27.1063C14.3559 30.5463 15.0659 31.1963 18.5859 31.1963H28.5859C31.9259 31.1963 32.7359 30.6063 32.8259 27.6063C31.3959 27.2663 30.3359 25.9763 30.3359 24.4463C30.3359 22.9163 31.4059 21.6263 32.8359 21.2863V20.9463C32.8359 17.3763 32.1659 16.6963 28.5859 16.6963H18.5859C15.0659 16.6963 14.3559 17.3463 14.3359 20.7863C15.7659 21.1263 16.8359 22.4163 16.8359 23.9463C16.8359 25.4763 15.7659 26.7663 14.3359 27.1063Z" fill="white"/>
<path d="M21.5859 19.1963C21.1759 19.1963 20.8359 18.8563 20.8359 18.4463V15.9463C20.8359 15.5363 21.1759 15.1963 21.5859 15.1963C21.9959 15.1963 22.3359 15.5363 22.3359 15.9463V18.4463C22.3359 18.8563 21.9959 19.1963 21.5859 19.1963Z" fill="white"/>
<path d="M21.5859 26.5264C21.1759 26.5264 20.8359 26.1864 20.8359 25.7764V22.1064C20.8359 21.6964 21.1759 21.3564 21.5859 21.3564C21.9959 21.3564 22.3359 21.6964 22.3359 22.1064V25.7764C22.3359 26.1964 21.9959 26.5264 21.5859 26.5264Z" fill="white"/>
<path d="M21.5859 32.6963C21.1759 32.6963 20.8359 32.3563 20.8359 31.9463V29.4463C20.8359 29.0363 21.1759 28.6963 21.5859 28.6963C21.9959 28.6963 22.3359 29.0363 22.3359 29.4463V31.9463C22.3359 32.3563 21.9959 32.6963 21.5859 32.6963Z" fill="white"/>
</svg>
