<svg width="48" height="48" viewBox="0 0 48 48" fill="none" xmlns="http://www.w3.org/2000/svg">
<rect y="0.360352" width="47.1724" height="47.1724" rx="23.5862" fill="#274FED"/>
<path d="M23.0859 33.6963C17.4359 33.6963 12.8359 29.0963 12.8359 23.4463C12.8359 17.7963 17.4359 13.1963 23.0859 13.1963C28.7359 13.1963 33.3359 17.7963 33.3359 23.4463C33.3359 29.0963 28.7359 33.6963 23.0859 33.6963ZM23.0859 14.6963C18.2559 14.6963 14.3359 18.6263 14.3359 23.4463C14.3359 28.2663 18.2559 32.1963 23.0859 32.1963C27.9159 32.1963 31.8359 28.2663 31.8359 23.4463C31.8359 18.6263 27.9159 14.6963 23.0859 14.6963Z" fill="white"/>
<path d="M33.5834 34.6967C33.3934 34.6967 33.2034 34.6267 33.0534 34.4767L31.0534 32.4767C30.7634 32.1867 30.7634 31.7067 31.0534 31.4167C31.3434 31.1267 31.8234 31.1267 32.1134 31.4167L34.1134 33.4167C34.4034 33.7067 34.4034 34.1867 34.1134 34.4767C33.9634 34.6267 33.7734 34.6967 33.5834 34.6967Z" fill="white"/>
</svg>
