<svg width="48" height="48" viewBox="0 0 48 48" fill="none" xmlns="http://www.w3.org/2000/svg">
<rect y="0.360352" width="47.1724" height="47.1724" rx="23.5862" fill="#89128A"/>
<path d="M17.7748 34.0061C16.7748 34.0061 15.8048 33.6161 15.0348 32.8661C13.7848 31.6461 13.4848 29.8461 14.2648 28.2861L15.8848 25.0461C16.2248 24.3661 16.2248 23.5461 15.8848 22.8561L14.2648 19.6061C13.4848 18.0461 13.7848 16.2461 15.0348 15.0261C16.2848 13.8061 18.0848 13.5361 19.6348 14.3561L31.2248 20.4561C32.5248 21.1361 33.3348 22.4761 33.3348 23.9461C33.3348 25.4161 32.5248 26.7561 31.2248 27.4361L19.6348 33.5361C19.0348 33.8561 18.4048 34.0061 17.7748 34.0061ZM17.7848 15.3861C17.0948 15.3861 16.4948 15.7061 16.0848 16.1061C15.4648 16.7061 15.0248 17.7761 15.6048 18.9461L17.2248 22.1861C17.7748 23.2961 17.7748 24.6061 17.2248 25.7161L15.6048 28.9561C15.0148 30.1261 15.4648 31.1961 16.0848 31.7961C16.7048 32.3961 17.7748 32.8261 18.9348 32.2161L30.5248 26.1161C31.3448 25.6861 31.8348 24.8761 31.8348 23.9561C31.8348 23.0361 31.3448 22.2261 30.5248 21.7961L18.9348 15.6761C18.5348 15.4661 18.1448 15.3861 17.7848 15.3861Z" fill="white"/>
</svg>
